#Comment line ignore any data following # character 
#Hierarchical Translation and Rotation (.htr) file 
[Header]	
#Header keywords are followed by a single value 
FileType HTR		#Single word string
DataType HTRS		#Translation followed by rotation and scale data
FileVersion 1		#integer
NumSegments 84		#integer
NumFrames 2		#integer
DataFrameRate 30		#integer, data frame rate in this file
EulerRotationOrder ZYX
CalibrationUnits mm
RotationUnits Degrees
GlobalAxisofGravity Y
BoneLengthAxis Y
ScaleFactor 1.00
[SegmentNames&Hierarchy]
#CHILD	PARENT
MASTER GLOBAL
root MASTER
chest root
L_mid_tent01 root
R_mid_tent01 root
spine01 root
Bip01_Neck chest
L_humerus chest
R_humerus chest
weapon_bone chest
Bip01_Head Bip01_Neck
eye_left_bone Bip01_Head
eye_right_bone Bip01_Head
L_forearm L_humerus
L_front_hand L_forearm
L_weapon_bone L_forearm
L_front_hand01_01 L_front_hand
L_front_hand02_01 L_front_hand
L_front_hand03_01 L_front_hand
L_front_hand01_02 L_front_hand01_01
L_front_hand02_02 L_front_hand02_01
L_front_hand03_02 L_front_hand03_01
R_forearm R_humerus
R_front_hand R_forearm
R_weapon_bone R_forearm
R_front_hand01_01 R_front_hand
R_front_hand02_01 R_front_hand
R_front_hand03_01 R_front_hand
R_front_hand01_02 R_front_hand01_01
R_front_hand02_02 R_front_hand02_01
R_front_hand03_02 R_front_hand03_01
null_rope01_connect L_mid_tent01
Rope1_Seg01 null_rope01_connect
Rope1_Seg02 Rope1_Seg01
Rope1_Seg03 Rope1_Seg02
Rope1_Seg04 Rope1_Seg03
Rope1_Seg05 Rope1_Seg04
Rope1_Seg06 Rope1_Seg05
Rope1_Seg07 Rope1_Seg06
Rope1_Seg09 Rope1_Seg07
L_mid_hand01 Rope1_Seg09
L_mid_hand02 Rope1_Seg09
L_mid_hand03 Rope1_Seg09
null_rope02_connect R_mid_tent01
Rope2_Seg01 null_rope02_connect
Rope2_Seg02 Rope2_Seg01
Rope2_Seg03 Rope2_Seg02
Rope2_Seg04 Rope2_Seg03
Rope2_Seg05 Rope2_Seg04
Rope2_Seg06 Rope2_Seg05
Rope2_Seg07 Rope2_Seg06
Rope2_Seg09 Rope2_Seg07
R_mid_hand01 Rope2_Seg09
R_mid_hand02 Rope2_Seg09
R_mid_hand03 Rope2_Seg09
spine02 spine01
spine03 spine02
pelvis spine03
null_rope03_connect pelvis
null_rope04_connect pelvis
Rope3_Seg01 null_rope03_connect
Rope3_Seg02 Rope3_Seg01
Rope3_Seg03 Rope3_Seg02
Rope3_Seg04 Rope3_Seg03
Rope3_Seg05 Rope3_Seg04
Rope3_Seg06 Rope3_Seg05
Rope3_Seg07 Rope3_Seg06
Rope3_Seg08 Rope3_Seg07
Rope3_Seg09 Rope3_Seg08
R_rear_hand01 Rope3_Seg09
R_rear_hand02 Rope3_Seg09
R_rear_hand03 Rope3_Seg09
Rope4_Seg01 null_rope04_connect
Rope4_Seg02 Rope4_Seg01
Rope4_Seg03 Rope4_Seg02
Rope4_Seg04 Rope4_Seg03
Rope4_Seg05 Rope4_Seg04
Rope4_Seg06 Rope4_Seg05
Rope4_Seg07 Rope4_Seg06
Rope4_Seg08 Rope4_Seg07
Rope4_Seg09 Rope4_Seg08
L_rear_hand01 Rope4_Seg09
L_rear_hand02 Rope4_Seg09
L_rear_hand03 Rope4_Seg09
[BasePosition]
#SegmentName Tx, Ty, Tz, Rx, Ry, Rz, BoneLength
MASTER 0.000000 0.000000 0.000000 -90.000000 0.000000 0.000000 10.000000 
root 0.000000 0.000000 0.000000 0.000000 0.000000 0.000000 10.000000 
chest 0.000000 0.000000 0.000000 0.000000 0.000000 0.000000 10.000000 
L_mid_tent01 0.000000 0.000000 0.000000 0.000000 0.000000 0.000000 10.000000 
R_mid_tent01 0.000000 0.000000 0.000000 0.000000 0.000000 0.000000 10.000000 
spine01 0.000000 0.000000 0.000000 0.000000 0.000000 0.000000 10.000000 
Bip01_Neck 0.000000 0.000000 0.000000 0.000000 0.000000 0.000000 10.000000 
L_humerus 0.000000 0.000000 0.000000 0.000000 0.000000 0.000000 10.000000 
R_humerus 0.000000 0.000000 0.000000 0.000000 0.000000 0.000000 10.000000 
weapon_bone 0.000000 0.000000 0.000000 0.000000 0.000000 0.000000 10.000000 
Bip01_Head 0.000000 0.000000 0.000000 0.000000 0.000000 0.000000 10.000000 
eye_left_bone 0.000000 0.000000 0.000000 0.000000 0.000000 0.000000 10.000000 
eye_right_bone 0.000000 0.000000 0.000000 0.000000 0.000000 0.000000 10.000000 
L_forearm 0.000000 0.000000 0.000000 0.000000 0.000000 0.000000 10.000000 
L_front_hand 0.000000 0.000000 0.000000 0.000000 0.000000 0.000000 10.000000 
L_weapon_bone 0.000000 0.000000 0.000000 0.000000 0.000000 0.000000 10.000000 
L_front_hand01_01 0.000000 0.000000 0.000000 0.000000 0.000000 0.000000 10.000000 
L_front_hand02_01 0.000000 0.000000 0.000000 0.000000 0.000000 0.000000 10.000000 
L_front_hand03_01 0.000000 0.000000 0.000000 0.000000 0.000000 0.000000 10.000000 
L_front_hand01_02 0.000000 0.000000 0.000000 0.000000 0.000000 0.000000 10.000000 
L_front_hand02_02 0.000000 0.000000 0.000000 0.000000 0.000000 0.000000 10.000000 
L_front_hand03_02 0.000000 0.000000 0.000000 0.000000 0.000000 0.000000 10.000000 
R_forearm 0.000000 0.000000 0.000000 0.000000 0.000000 0.000000 10.000000 
R_front_hand 0.000000 0.000000 0.000000 0.000000 0.000000 0.000000 10.000000 
R_weapon_bone 0.000000 0.000000 0.000000 0.000000 0.000000 0.000000 10.000000 
R_front_hand01_01 0.000000 0.000000 0.000000 0.000000 0.000000 0.000000 10.000000 
R_front_hand02_01 0.000000 0.000000 0.000000 0.000000 0.000000 0.000000 10.000000 
R_front_hand03_01 0.000000 0.000000 0.000000 0.000000 0.000000 0.000000 10.000000 
R_front_hand01_02 0.000000 0.000000 0.000000 0.000000 0.000000 0.000000 10.000000 
R_front_hand02_02 0.000000 0.000000 0.000000 0.000000 0.000000 0.000000 10.000000 
R_front_hand03_02 0.000000 0.000000 0.000000 0.000000 0.000000 0.000000 10.000000 
null_rope01_connect 0.000000 0.000000 0.000000 0.000000 0.000000 0.000000 10.000000 
Rope1_Seg01 0.000000 0.000000 0.000000 0.000000 0.000000 0.000000 10.000000 
Rope1_Seg02 0.000000 0.000000 0.000000 0.000000 0.000000 0.000000 10.000000 
Rope1_Seg03 0.000000 0.000000 0.000000 0.000000 0.000000 0.000000 10.000000 
Rope1_Seg04 0.000000 0.000000 0.000000 0.000000 0.000000 0.000000 10.000000 
Rope1_Seg05 0.000000 0.000000 0.000000 0.000000 0.000000 0.000000 10.000000 
Rope1_Seg06 0.000000 0.000000 0.000000 0.000000 0.000000 0.000000 10.000000 
Rope1_Seg07 0.000000 0.000000 0.000000 0.000000 0.000000 0.000000 10.000000 
Rope1_Seg09 0.000000 0.000000 0.000000 0.000000 0.000000 0.000000 10.000000 
L_mid_hand01 0.000000 0.000000 0.000000 0.000000 0.000000 0.000000 10.000000 
L_mid_hand02 0.000000 0.000000 0.000000 0.000000 0.000000 0.000000 10.000000 
L_mid_hand03 0.000000 0.000000 0.000000 0.000000 0.000000 0.000000 10.000000 
null_rope02_connect 0.000000 0.000000 0.000000 0.000000 0.000000 0.000000 10.000000 
Rope2_Seg01 0.000000 0.000000 0.000000 0.000000 0.000000 0.000000 10.000000 
Rope2_Seg02 0.000000 0.000000 0.000000 0.000000 0.000000 0.000000 10.000000 
Rope2_Seg03 0.000000 0.000000 0.000000 0.000000 0.000000 0.000000 10.000000 
Rope2_Seg04 0.000000 0.000000 0.000000 0.000000 0.000000 0.000000 10.000000 
Rope2_Seg05 0.000000 0.000000 0.000000 0.000000 0.000000 0.000000 10.000000 
Rope2_Seg06 0.000000 0.000000 0.000000 0.000000 0.000000 0.000000 10.000000 
Rope2_Seg07 0.000000 0.000000 0.000000 0.000000 0.000000 0.000000 10.000000 
Rope2_Seg09 0.000000 0.000000 0.000000 0.000000 0.000000 0.000000 10.000000 
R_mid_hand01 0.000000 0.000000 0.000000 0.000000 0.000000 0.000000 10.000000 
R_mid_hand02 0.000000 0.000000 0.000000 0.000000 0.000000 0.000000 10.000000 
R_mid_hand03 0.000000 0.000000 0.000000 0.000000 0.000000 0.000000 10.000000 
spine02 0.000000 0.000000 0.000000 0.000000 0.000000 0.000000 10.000000 
spine03 0.000000 0.000000 0.000000 0.000000 0.000000 0.000000 10.000000 
pelvis 0.000000 0.000000 0.000000 0.000000 0.000000 0.000000 10.000000 
null_rope03_connect 0.000000 0.000000 0.000000 0.000000 0.000000 0.000000 10.000000 
null_rope04_connect 0.000000 0.000000 0.000000 0.000000 0.000000 0.000000 10.000000 
Rope3_Seg01 0.000000 0.000000 0.000000 0.000000 0.000000 0.000000 10.000000 
Rope3_Seg02 0.000000 0.000000 0.000000 0.000000 0.000000 0.000000 10.000000 
Rope3_Seg03 0.000000 0.000000 0.000000 0.000000 0.000000 0.000000 10.000000 
Rope3_Seg04 0.000000 0.000000 0.000000 0.000000 0.000000 0.000000 10.000000 
Rope3_Seg05 0.000000 0.000000 0.000000 0.000000 0.000000 0.000000 10.000000 
Rope3_Seg06 0.000000 0.000000 0.000000 0.000000 0.000000 0.000000 10.000000 
Rope3_Seg07 0.000000 0.000000 0.000000 0.000000 0.000000 0.000000 10.000000 
Rope3_Seg08 0.000000 0.000000 0.000000 0.000000 0.000000 0.000000 10.000000 
Rope3_Seg09 0.000000 0.000000 0.000000 0.000000 0.000000 0.000000 10.000000 
R_rear_hand01 0.000000 0.000000 0.000000 0.000000 0.000000 0.000000 10.000000 
R_rear_hand02 0.000000 0.000000 0.000000 0.000000 0.000000 0.000000 10.000000 
R_rear_hand03 0.000000 0.000000 0.000000 0.000000 0.000000 0.000000 10.000000 
Rope4_Seg01 0.000000 0.000000 0.000000 0.000000 0.000000 0.000000 10.000000 
Rope4_Seg02 0.000000 0.000000 0.000000 0.000000 0.000000 0.000000 10.000000 
Rope4_Seg03 0.000000 0.000000 0.000000 0.000000 0.000000 0.000000 10.000000 
Rope4_Seg04 0.000000 0.000000 0.000000 0.000000 0.000000 0.000000 10.000000 
Rope4_Seg05 0.000000 0.000000 0.000000 0.000000 0.000000 0.000000 10.000000 
Rope4_Seg06 0.000000 0.000000 0.000000 0.000000 0.000000 0.000000 10.000000 
Rope4_Seg07 0.000000 0.000000 0.000000 0.000000 0.000000 0.000000 10.000000 
Rope4_Seg08 0.000000 0.000000 0.000000 0.000000 0.000000 0.000000 10.000000 
Rope4_Seg09 0.000000 0.000000 0.000000 0.000000 0.000000 0.000000 10.000000 
L_rear_hand01 0.000000 0.000000 0.000000 0.000000 0.000000 0.000000 10.000000 
L_rear_hand02 0.000000 0.000000 0.000000 0.000000 0.000000 0.000000 10.000000 
L_rear_hand03 0.000000 0.000000 0.000000 0.000000 0.000000 0.000000 10.000000 
#Beginning of Data. Separated by tabs
#Fr	Tx	Ty	Tz	Rx	Ry	Rz	SF
[MASTER]
19 -131.075485 2171.083740 1692.538208 0.001660 0.001660 0.001660 2755.988281
20 -128.737473 2213.097656 1606.309814 0.001660 0.001660 0.001660 2737.627686
[root]
19 -8.415241 256.714600 896.626709 -96.573685 -19.958281 -88.214684 932.691101
20 -8.399439 290.770111 978.280334 -96.627563 -24.068624 -87.825218 1020.612671
[chest]
19 -84.512650 -34.090519 0.000000 -1.657566 2.295492 142.822617 91.129311
20 -84.512650 -34.090519 0.000000 -3.280202 -2.529839 143.123657 91.129311
[L_mid_tent01]
19 27.299129 22.179193 -249.918716 -0.210073 18.258179 81.178871 252.381714
20 27.299131 22.179197 -249.918716 -0.243024 18.135767 81.091141 252.381714
[R_mid_tent01]
19 23.228794 24.509907 226.238495 142.176453 -34.098564 66.699791 228.744751
20 23.228794 24.509907 226.238495 138.594223 -35.830189 66.838951 228.744751
[spine01]
19 -0.361383 -0.195265 0.000000 -0.000001 -0.000007 22.052340 0.410763
20 -0.361383 -0.195265 0.000000 -0.000001 -0.000007 22.052340 0.410763
[Bip01_Neck]
19 165.484543 71.581718 0.000119 176.643677 -1.657967 43.431911 180.302734
20 165.484543 71.581718 0.000119 176.643677 -1.657967 43.431911 180.302734
[L_humerus]
19 -13.983130 -135.272980 -120.471481 168.185974 43.762634 -98.198044 181.680161
20 -13.983130 -135.272980 -120.471481 169.710297 35.114872 -95.935844 181.680161
[R_humerus]
19 -13.983309 -135.273102 125.287651 -176.034622 -20.834070 -87.614471 184.909012
20 -13.983309 -135.273102 125.287651 -176.305649 -15.362666 -87.104424 184.909012
[weapon_bone]
19 235.964890 -300.705902 0.000000 0.000000 -89.951546 -128.212341 382.234833
20 235.964890 -300.705902 0.000000 0.000000 -89.951546 -128.212341 382.234833
[Bip01_Head]
19 213.351105 185.943634 8.369858 4.962491 2.797846 -43.898746 283.132080
20 213.358032 185.917175 8.604897 4.962490 2.797846 -43.898750 283.126984
[eye_left_bone]
19 -24.626970 125.451866 -64.772606 0.000000 -90.000000 -99.840431 143.318359
20 -24.626970 125.451866 -64.772606 0.000000 -90.000000 -99.840431 143.318359
[eye_right_bone]
19 -24.626970 125.451866 64.327362 0.000000 -89.965736 80.156380 143.117676
20 -24.626970 125.451866 64.327362 0.000000 -89.965736 80.156380 143.117676
[L_forearm]
19 322.776093 0.000000 -0.000119 0.000400 -0.002313 -109.601646 322.776093
20 322.776093 0.000000 -0.000119 0.000396 -0.002314 -109.444214 322.776093
[L_front_hand]
19 241.149185 -0.042021 -3.300071 -34.864918 -1.837708 -27.425161 241.171753
20 241.149185 -0.042021 -3.300071 -61.889069 -1.837500 -27.424942 241.171753
[L_weapon_bone]
19 156.183838 0.000000 0.000000 0.000014 0.000007 0.000001 156.183838
20 156.183838 0.000000 0.000000 0.000014 0.000007 0.000001 156.183838
[L_front_hand01_01]
19 86.095154 20.947098 -0.655860 -0.343298 -0.494452 72.684830 88.609184
20 86.095154 20.947098 -0.655860 -0.351864 -0.488251 73.756912 88.609184
[L_front_hand02_01]
19 86.935165 -11.437475 24.513514 150.381821 -58.634853 -56.693264 91.046425
20 86.935165 -11.437475 24.513514 151.937775 -59.151119 -58.507736 91.046425
[L_front_hand03_01]
19 86.637497 -14.123976 -20.424902 -150.184570 56.852535 -58.280544 90.126129
20 86.637497 -14.123976 -20.424902 -151.626480 57.374607 -59.999687 90.126129
[L_front_hand01_02]
19 71.020905 -0.000179 0.000030 0.000280 -0.002330 -103.706055 71.020905
20 71.020905 -0.000179 0.000030 0.000272 -0.002331 -103.315620 71.020905
[L_front_hand02_02]
19 71.020927 -0.000119 0.000060 0.000280 -0.002330 -103.706055 71.020927
20 71.020927 -0.000119 0.000060 0.000272 -0.002331 -103.315620 71.020927
[L_front_hand03_02]
19 71.020905 -0.000060 0.000060 0.000280 -0.002330 -103.706055 71.020905
20 71.020905 -0.000060 0.000060 0.000272 -0.002331 -103.315620 71.020905
[R_forearm]
19 322.776428 -0.000060 0.000030 0.201809 0.066061 -108.575287 322.776428
20 322.776428 -0.000060 0.000030 0.201890 0.065814 -108.435127 322.776428
[R_front_hand]
19 238.847015 -0.006795 2.210259 -56.404797 -10.645411 -26.314463 238.857239
20 238.847015 -0.006795 2.210259 -18.125416 -10.645663 -26.315670 238.857239
[R_weapon_bone]
19 155.664093 0.002503 -0.000030 0.003487 0.001180 -90.988930 155.664078
20 155.664093 0.002503 -0.000030 0.003487 0.001180 -90.988930 155.664078
[R_front_hand01_01]
19 87.624611 14.231146 22.918642 -154.633499 -59.950619 61.746044 91.683487
20 87.624611 14.231146 22.918642 -154.267029 -59.846516 61.321247 91.683487
[R_front_hand02_01]
19 89.356956 14.367283 -19.491137 154.602661 58.302849 63.744389 92.579636
20 89.356956 14.367283 -19.491137 154.258240 58.203205 63.346249 92.579636
[R_front_hand03_01]
19 87.286232 -22.307278 -0.143439 0.162155 -0.423168 -75.767921 90.091743
20 87.286232 -22.307278 -0.143439 0.161299 -0.423495 -75.536247 90.091743
[R_front_hand01_02]
19 71.020905 0.000060 0.000119 0.002332 -0.000266 103.035164 71.020905
20 71.020905 0.000060 0.000119 0.002332 -0.000264 102.914268 71.020905
[R_front_hand02_02]
19 71.020844 -0.000030 -0.000119 0.002332 -0.000266 103.035164 71.020836
20 71.020844 -0.000030 -0.000119 0.002332 -0.000264 102.914268 71.020836
[R_front_hand03_02]
19 71.020905 0.000000 0.000030 0.002332 -0.000266 103.035164 71.020905
20 71.020905 0.000000 0.000030 0.002332 -0.000264 102.914268 71.020905
[null_rope01_connect]
19 328.732483 0.000000 -0.000238 -157.546082 -65.950874 -173.206161 328.732483
20 328.732483 0.000000 -0.000238 -154.158813 -66.303749 -172.340805 328.732483
[Rope1_Seg01]
19 -0.000015 0.000024 0.000058 112.090973 -29.822342 160.207657 0.000065
20 -0.000015 0.000023 0.000062 106.020676 -32.530846 171.901978 0.000068
[Rope1_Seg02]
19 139.999863 -0.000179 0.000000 -0.081917 1.384541 -9.769713 139.999863
20 139.999863 -0.000179 0.000000 0.725962 -4.530372 -5.404349 139.999863
[Rope1_Seg03]
19 139.999924 0.000060 -0.000060 2.065920 2.430962 -19.096598 139.999924
20 139.999924 0.000060 -0.000060 1.943218 -8.323542 -9.832181 139.999924
[Rope1_Seg04]
19 139.999924 -0.000060 -0.000119 12.077048 1.151483 -28.790016 139.999924
20 139.999924 -0.000060 -0.000119 6.665741 -18.688601 -20.217505 139.999924
[Rope1_Seg05]
19 139.999832 0.000119 -0.000060 40.749119 0.792457 -36.621246 139.999832
20 139.999832 0.000119 -0.000060 8.206017 -19.183430 -22.489586 139.999832
[Rope1_Seg06]
19 139.999954 0.000119 -0.000060 63.472225 -22.814259 -34.174725 139.999954
20 139.999954 0.000119 -0.000060 27.101580 -30.607609 -49.923122 139.999954
[Rope1_Seg07]
19 139.999985 0.000060 0.000000 7.913222 -14.659653 1.311488 139.999985
20 139.999985 0.000060 0.000000 10.213394 -22.893578 -18.985329 139.999985
[Rope1_Seg09]
19 121.602913 0.000119 -0.000089 -89.793175 -1.359789 0.847147 121.602913
20 121.602913 0.000119 -0.000089 -89.793175 -1.359789 0.847147 121.602913
[L_mid_hand01]
19 103.859421 1.038730 8.195221 119.055542 -59.298035 -26.066490 104.187431
20 103.859421 1.038730 8.195221 121.913704 -62.028740 -29.342178 104.187431
[L_mid_hand02]
19 105.572853 -4.139662 -10.864139 -160.167084 40.723114 -60.466171 106.211075
20 105.572853 -4.139662 -10.864139 -162.798111 41.730755 -64.459167 106.211075
[L_mid_hand03]
19 104.641464 17.579376 -3.913581 -9.090188 16.486177 64.488457 106.179977
20 104.641464 17.579376 -3.913581 -8.147997 16.962013 67.754311 106.179977
[null_rope02_connect]
19 328.732849 0.000179 -0.000119 -77.202759 40.220211 50.276566 328.732849
20 328.732849 0.000179 -0.000119 -71.760536 36.300625 49.946133 328.732849
[Rope2_Seg01]
19 0.000053 0.000094 0.000000 -42.478142 -50.963585 32.435020 0.000108
20 0.000054 0.000091 0.000000 -46.797886 -40.492123 40.207813 0.000106
[Rope2_Seg02]
19 139.999741 -0.000060 -0.000119 -0.041782 7.410610 -1.512680 139.999756
20 139.999741 -0.000060 -0.000119 -0.189694 6.570412 -3.160264 139.999756
[Rope2_Seg03]
19 140.000107 0.000030 0.000000 -2.149963 22.206703 -6.532739 140.000107
20 140.000107 0.000030 0.000000 -1.255037 17.540077 -8.747548 140.000107
[Rope2_Seg04]
19 139.999802 0.000000 -0.000060 -48.052776 54.265743 -12.852799 139.999802
20 139.999802 0.000000 -0.000060 -8.529570 44.068939 -28.012976 139.999802
[Rope2_Seg05]
19 139.999985 -0.000060 0.000119 -61.015179 23.085117 57.066837 139.999985
20 139.999985 -0.000060 0.000119 166.628159 39.672592 -24.662117 139.999985
[Rope2_Seg06]
19 139.999893 -0.000030 -0.000119 -4.359321 -12.050405 14.135639 139.999893
20 139.999893 -0.000030 -0.000119 -1.512690 -24.059608 10.603886 139.999893
[Rope2_Seg07]
19 139.999893 0.000060 -0.000060 -0.449939 -3.152421 3.279899 139.999893
20 139.999893 0.000060 -0.000060 -0.165844 -7.028656 3.049621 139.999893
[Rope2_Seg09]
19 121.338966 0.000089 -0.000060 33.793236 -1.359788 -0.847141 121.338966
20 121.338966 0.000089 -0.000060 33.793236 -1.359788 -0.847141 121.338966
[R_mid_hand01]
19 104.680779 11.144459 -10.335981 -34.395393 34.968513 42.666153 105.778534
20 104.680779 11.144459 -10.335981 -32.351307 36.833469 46.151844 105.778534
[R_mid_hand02]
19 104.070427 2.443552 8.231699 68.534225 -47.330887 16.661499 104.424065
20 104.070427 2.443552 8.231699 67.067345 -50.463902 18.609598 104.424065
[R_mid_hand03]
19 106.028137 -11.221827 -5.996406 -171.057114 13.096072 -52.505157 106.788818
20 106.028137 -11.221827 -5.996406 -171.852554 13.596698 -55.941730 106.788818
[spine02]
19 129.756927 0.001550 0.000119 0.539843 -4.023613 -15.509618 129.756927
20 129.756927 0.001550 0.000119 0.535633 -4.024182 -15.459536 129.756927
[spine03]
19 78.613998 0.081693 -4.898998 2.000918 3.776135 18.087353 78.766541
20 78.613998 0.081696 -4.898998 2.000078 3.778348 18.053970 78.766541
[pelvis]
19 169.435242 0.051022 0.000000 -0.070460 -0.177685 17.350714 169.435257
20 169.435242 0.051022 0.000000 -0.070394 -0.177711 17.308186 169.435257
[null_rope03_connect]
19 -1.257226 -2.466202 137.391083 -178.132248 -85.097069 -113.813400 137.418976
20 -1.257226 -2.466202 137.391083 -178.316422 -85.198128 -109.466660 137.418976
[null_rope04_connect]
19 -1.259640 -2.480268 -137.844437 -178.132248 -85.097069 -113.813400 137.872513
20 -1.259640 -2.480268 -137.844437 -178.316422 -85.198128 -109.466660 137.872513
[Rope3_Seg01]
19 0.000000 0.000000 0.000000 -159.870972 -68.829147 -57.484497 0.000000
20 0.000000 0.000000 0.000000 -156.056473 -71.174057 -62.362354 0.000000
[Rope3_Seg02]
19 139.999924 -0.000119 0.000060 -1.639123 -1.503235 -8.775613 139.999924
20 139.999924 -0.000119 0.000060 0.235176 -4.747599 -7.894620 139.999924
[Rope3_Seg03]
19 139.999924 -0.000119 0.000119 -7.611049 -2.787565 -20.012381 139.999924
20 139.999924 -0.000119 0.000119 1.257292 -11.357593 -19.188055 139.999924
[Rope3_Seg04]
19 139.999924 0.000119 0.000000 -67.365135 -2.238871 -40.641212 139.999924
20 139.999924 0.000119 0.000000 -80.003609 -19.431126 -33.750912 139.999924
[Rope3_Seg05]
19 139.999924 -0.000238 0.000060 -46.148876 29.186764 -9.751857 139.999924
20 139.999924 -0.000238 0.000060 -95.373222 38.314850 -27.156763 139.999924
[Rope3_Seg06]
19 139.999893 -0.000119 -0.000060 -1.392709 24.613913 20.218855 139.999893
20 139.999893 -0.000119 -0.000060 8.926928 22.297367 40.131023 139.999893
[Rope3_Seg07]
19 139.999771 0.000060 -0.000119 0.801187 13.015335 10.921130 139.999771
20 139.999771 0.000060 -0.000119 1.118878 6.808774 10.059584 139.999771
[Rope3_Seg08]
19 139.999985 -0.000060 0.000000 0.787219 5.723599 4.707069 139.999985
20 139.999985 -0.000060 0.000000 0.638005 2.706958 3.886135 139.999985
[Rope3_Seg09]
19 90.185997 -0.000179 -0.000060 89.793228 -1.359877 -0.847183 90.185997
20 90.185997 -0.000179 -0.000060 89.793228 -1.359877 -0.847183 90.185997
[R_rear_hand01]
19 103.366196 -6.073594 -10.757982 -167.735992 21.565800 -48.800823 104.101845
20 103.366196 -6.073594 -10.757982 -169.183289 22.304329 -52.678268 104.101845
[R_rear_hand02]
19 100.509819 12.039542 -7.992327 -27.197794 28.737703 46.115391 101.543350
20 100.509819 12.039542 -7.992327 -25.326187 30.360580 49.900948 101.543350
[R_rear_hand03]
19 101.539970 5.215704 5.435467 81.295586 -49.108280 10.466788 101.819031
20 101.539970 5.215704 5.435467 80.575401 -52.733376 11.389215 101.819031
[Rope4_Seg01]
19 0.000010 0.000038 -0.000114 103.033234 -44.777935 -161.431274 0.000121
20 0.000010 0.000038 -0.000114 120.561462 -65.220367 -164.293930 0.000121
[Rope4_Seg02]
19 139.999985 0.000060 0.000119 -13.212070 1.825229 -10.081065 139.999985
20 139.999985 0.000060 0.000119 -5.808596 -2.384465 -8.642999 139.999985
[Rope4_Seg03]
19 139.999924 0.000000 -0.000238 -20.439980 6.121517 -14.367679 139.999924
20 139.999924 0.000000 -0.000238 -12.156462 -2.199309 -13.321513 139.999924
[Rope4_Seg04]
19 139.999985 0.000000 0.000119 -20.865171 14.006012 -15.497979 139.999985
20 139.999985 0.000000 0.000119 -26.066954 6.226746 -20.954388 139.999985
[Rope4_Seg05]
19 139.999802 -0.000060 -0.000119 -11.088567 17.002323 -9.352702 139.999802
20 139.999802 -0.000060 -0.000119 -19.405260 5.090114 -16.466208 139.999802
[Rope4_Seg06]
19 139.999924 0.000000 0.000060 -4.166863 13.276761 -4.470149 139.999924
20 139.999924 0.000000 0.000060 -31.490452 -6.769759 -26.096298 139.999924
[Rope4_Seg07]
19 139.999802 0.000000 0.000000 -1.433256 9.173120 -2.420788 139.999802
20 139.999802 0.000000 0.000000 -33.547966 8.732654 -21.011656 139.999802
[Rope4_Seg08]
19 139.999924 0.000000 0.000119 -1.934663 5.349228 -1.277173 139.999924
20 139.999924 0.000000 0.000119 -11.884925 9.877218 -5.951337 139.999924
[Rope4_Seg09]
19 90.185791 0.000060 0.000060 -135.617828 2.228885 0.850567 90.185791
20 90.185791 0.000060 0.000060 -135.617828 2.228885 0.850567 90.185791
[L_rear_hand01]
19 101.696655 -8.392275 -7.654577 -19.499582 -34.171791 119.209068 102.329041
20 101.696655 -8.392275 -7.654577 -17.798244 -35.006115 116.214821 102.329041
[L_rear_hand02]
19 102.726799 -1.568258 5.773216 77.604713 62.517117 165.103577 102.900848
20 102.726799 -1.568258 5.773216 76.414993 65.052925 163.777985 102.900848
[L_rear_hand03]
19 104.552910 9.721220 -10.420293 -173.384857 -23.818932 -116.619865 105.519653
20 104.552910 9.721220 -10.420293 -174.535919 -24.090160 -113.787491 105.519653
